<svg width="64" height="64" viewBox="0 0 64 64" fill="none" xmlns="http://www.w3.org/2000/svg">
<rect width="64" height="64" rx="32" fill="white"/>
<rect x="0.5" y="0.5" width="63" height="63" rx="31.5" stroke="black" stroke-opacity="0.1"/>
<path d="M41 32C41 32.1989 40.921 32.3897 40.7803 32.5303C40.6397 32.671 40.4489 32.75 40.25 32.75H32.75V40.25C32.75 40.4489 32.671 40.6397 32.5303 40.7803C32.3897 40.921 32.1989 41 32 41C31.8011 41 31.6103 40.921 31.4697 40.7803C31.329 40.6397 31.25 40.4489 31.25 40.25V32.75H23.75C23.5511 32.75 23.3603 32.671 23.2197 32.5303C23.079 32.3897 23 32.1989 23 32C23 31.8011 23.079 31.6103 23.2197 31.4697C23.3603 31.329 23.5511 31.25 23.75 31.25H31.25V23.75C31.25 23.5511 31.329 23.3603 31.4697 23.2197C31.6103 23.079 31.8011 23 32 23C32.1989 23 32.3897 23.079 32.5303 23.2197C32.671 23.3603 32.75 23.5511 32.75 23.75V31.25H40.25C40.4489 31.25 40.6397 31.329 40.7803 31.4697C40.921 31.6103 41 31.8011 41 32Z" fill="#171E26"/>
</svg>
