<svg width="19" height="18" viewBox="0 0 19 18" fill="none" xmlns="http://www.w3.org/2000/svg">
<path opacity="0.2" d="M9.75 0C7.96997 0 6.22991 0.527841 4.74987 1.51677C3.26983 2.50571 2.11628 3.91131 1.43509 5.55585C0.7539 7.20038 0.57567 9.00998 0.922937 10.7558C1.2702 12.5016 2.12737 14.1053 3.38604 15.364C4.64472 16.6226 6.24836 17.4798 7.99419 17.8271C9.74002 18.1743 11.5496 17.9961 13.1942 17.3149C14.8387 16.6337 16.2443 15.4802 17.2332 14.0001C18.2222 12.5201 18.75 10.78 18.75 9C18.75 6.61305 17.8018 4.32387 16.114 2.63604C14.4261 0.948212 12.137 0 9.75 0ZM11.25 10.5L5.25 13.5L8.25 7.5L14.25 4.5L11.25 10.5Z" fill="#76878F"/>
</svg>
