<svg width="25" height="24" viewBox="0 0 25 24" fill="none" xmlns="http://www.w3.org/2000/svg">
<path opacity="0.2" d="M20.5 10.9397V20.25H14.5V14.25H10V20.25H4V10.9397L11.7194 3.21938C11.789 3.14965 11.8717 3.09433 11.9628 3.05658C12.0538 3.01884 12.1514 2.99941 12.25 2.99941C12.3486 2.99941 12.4462 3.01884 12.5372 3.05658C12.6283 3.09433 12.711 3.14965 12.7806 3.21938L20.5 10.9397Z" fill="#074A65"/>
<path d="M22.75 19.5H21.25V12.75L21.4694 12.9694C21.6104 13.1101 21.8015 13.1891 22.0007 13.1889C22.1999 13.1887 22.3908 13.1094 22.5316 12.9684C22.6723 12.8275 22.7513 12.6363 22.7511 12.4371C22.7509 12.2379 22.6716 12.047 22.5306 11.9062L13.3103 2.68875C13.029 2.40766 12.6477 2.24976 12.25 2.24976C11.8523 2.24976 11.471 2.40766 11.1897 2.68875L1.96938 11.9062C1.82877 12.047 1.74983 12.2378 1.74991 12.4367C1.75 12.6357 1.82911 12.8264 1.96984 12.967C2.11057 13.1076 2.3014 13.1866 2.50033 13.1865C2.69927 13.1864 2.89002 13.1073 3.03062 12.9666L3.25 12.75V19.5H1.75C1.55109 19.5 1.36032 19.579 1.21967 19.7197C1.07902 19.8603 1 20.0511 1 20.25C1 20.4489 1.07902 20.6397 1.21967 20.7803C1.36032 20.921 1.55109 21 1.75 21H22.75C22.9489 21 23.1397 20.921 23.2803 20.7803C23.421 20.6397 23.5 20.4489 23.5 20.25C23.5 20.0511 23.421 19.8603 23.2803 19.7197C23.1397 19.579 22.9489 19.5 22.75 19.5ZM4.75 11.25L12.25 3.75L19.75 11.25V19.5H15.25V14.25C15.25 14.0511 15.171 13.8603 15.0303 13.7197C14.8897 13.579 14.6989 13.5 14.5 13.5H10C9.80109 13.5 9.61032 13.579 9.46967 13.7197C9.32902 13.8603 9.25 14.0511 9.25 14.25V19.5H4.75V11.25ZM13.75 19.5H10.75V15H13.75V19.5Z" fill="#074A65"/>
</svg>
