<svg width="17" height="21" viewBox="0 0 17 21" fill="none" xmlns="http://www.w3.org/2000/svg">
<path d="M12 11C12 11.1989 11.921 11.3897 11.7803 11.5303C11.6397 11.671 11.4489 11.75 11.25 11.75H5.25C5.05109 11.75 4.86032 11.671 4.71967 11.5303C4.57902 11.3897 4.5 11.1989 4.5 11C4.5 10.8011 4.57902 10.6103 4.71967 10.4697C4.86032 10.329 5.05109 10.25 5.25 10.25H11.25C11.4489 10.25 11.6397 10.329 11.7803 10.4697C11.921 10.6103 12 10.8011 12 11ZM11.25 13.25H5.25C5.05109 13.25 4.86032 13.329 4.71967 13.4697C4.57902 13.6103 4.5 13.8011 4.5 14C4.5 14.1989 4.57902 14.3897 4.71967 14.5303C4.86032 14.671 5.05109 14.75 5.25 14.75H11.25C11.4489 14.75 11.6397 14.671 11.7803 14.5303C11.921 14.3897 12 14.1989 12 14C12 13.8011 11.921 13.6103 11.7803 13.4697C11.6397 13.329 11.4489 13.25 11.25 13.25ZM16.5 2.75V17.75C16.5 18.5456 16.1839 19.3087 15.6213 19.8713C15.0587 20.4339 14.2956 20.75 13.5 20.75H3C2.20435 20.75 1.44129 20.4339 0.87868 19.8713C0.31607 19.3087 0 18.5456 0 17.75V2.75C0 2.55109 0.0790178 2.36032 0.21967 2.21967C0.360322 2.07902 0.551088 2 0.75 2H3V1.25C3 1.05109 3.07902 0.860322 3.21967 0.71967C3.36032 0.579018 3.55109 0.5 3.75 0.5C3.94891 0.5 4.13968 0.579018 4.28033 0.71967C4.42098 0.860322 4.5 1.05109 4.5 1.25V2H7.5V1.25C7.5 1.05109 7.57902 0.860322 7.71967 0.71967C7.86032 0.579018 8.05109 0.5 8.25 0.5C8.44891 0.5 8.63968 0.579018 8.78033 0.71967C8.92098 0.860322 9 1.05109 9 1.25V2H12V1.25C12 1.05109 12.079 0.860322 12.2197 0.71967C12.3603 0.579018 12.5511 0.5 12.75 0.5C12.9489 0.5 13.1397 0.579018 13.2803 0.71967C13.421 0.860322 13.5 1.05109 13.5 1.25V2H15.75C15.9489 2 16.1397 2.07902 16.2803 2.21967C16.421 2.36032 16.5 2.55109 16.5 2.75ZM15 3.5H13.5V4.25C13.5 4.44891 13.421 4.63968 13.2803 4.78033C13.1397 4.92098 12.9489 5 12.75 5C12.5511 5 12.3603 4.92098 12.2197 4.78033C12.079 4.63968 12 4.44891 12 4.25V3.5H9V4.25C9 4.44891 8.92098 4.63968 8.78033 4.78033C8.63968 4.92098 8.44891 5 8.25 5C8.05109 5 7.86032 4.92098 7.71967 4.78033C7.57902 4.63968 7.5 4.44891 7.5 4.25V3.5H4.5V4.25C4.5 4.44891 4.42098 4.63968 4.28033 4.78033C4.13968 4.92098 3.94891 5 3.75 5C3.55109 5 3.36032 4.92098 3.21967 4.78033C3.07902 4.63968 3 4.44891 3 4.25V3.5H1.5V17.75C1.5 18.1478 1.65804 18.5294 1.93934 18.8107C2.22064 19.092 2.60218 19.25 3 19.25H13.5C13.8978 19.25 14.2794 19.092 14.5607 18.8107C14.842 18.5294 15 18.1478 15 17.75V3.5Z" fill="#76878F"/>
</svg>
