<svg width="36" height="61" viewBox="0 0 36 61" fill="none" xmlns="http://www.w3.org/2000/svg">
<path d="M13.9893 1.20508C9.63502 -0.0566924 5.05407 -0.331858 0.580078 0.399413L0.615234 0.613281C14.5293 3.44512 25 15.7497 25 30.5C25 45.4602 14.2287 57.9029 0.0185547 60.5C3.7815 61.1875 7.64626 61.1656 11.4111 60.4219C15.8586 59.5433 20.0547 57.6836 23.6934 54.9795C27.3318 52.2754 30.3215 48.794 32.4453 44.7891C34.5692 40.7839 35.7735 36.3554 35.9707 31.8262C36.1678 27.2971 35.3537 22.7809 33.5859 18.6064C31.8181 14.4318 29.1418 10.7035 25.752 7.69336C22.3621 4.68323 18.3435 2.46689 13.9893 1.20508Z" fill="#074A65"/>
</svg>
