<svg width="20" height="18" viewBox="0 0 20 18" fill="none" xmlns="http://www.w3.org/2000/svg">
<path d="M18.75 15.75H18V0.75C18 0.551088 17.921 0.360322 17.7803 0.21967C17.6397 0.0790178 17.4489 0 17.25 0H12C11.8011 0 11.6103 0.0790178 11.4697 0.21967C11.329 0.360322 11.25 0.551088 11.25 0.75V4.5H6.75C6.55109 4.5 6.36032 4.57902 6.21967 4.71967C6.07902 4.86032 6 5.05109 6 5.25V9H2.25C2.05109 9 1.86032 9.07902 1.71967 9.21967C1.57902 9.36032 1.5 9.55109 1.5 9.75V15.75H0.75C0.551088 15.75 0.360322 15.829 0.21967 15.9697C0.0790176 16.1103 0 16.3011 0 16.5C0 16.6989 0.0790176 16.8897 0.21967 17.0303C0.360322 17.171 0.551088 17.25 0.75 17.25H18.75C18.9489 17.25 19.1397 17.171 19.2803 17.0303C19.421 16.8897 19.5 16.6989 19.5 16.5C19.5 16.3011 19.421 16.1103 19.2803 15.9697C19.1397 15.829 18.9489 15.75 18.75 15.75ZM12.75 1.5H16.5V15.75H12.75V1.5ZM7.5 6H11.25V15.75H7.5V6ZM3 10.5H6V15.75H3V10.5Z" fill="#76878F"/>
</svg>
