<svg width="28" height="28" viewBox="0 0 28 28" fill="none" xmlns="http://www.w3.org/2000/svg">
<path d="M26.25 6.12499V11.375C26.25 11.6071 26.1578 11.8296 25.9937 11.9937C25.8296 12.1578 25.607 12.25 25.375 12.25H20.125C19.9518 12.2501 19.7825 12.1989 19.6385 12.1027C19.4945 12.0066 19.3822 11.8699 19.3159 11.7099C19.2496 11.55 19.2323 11.3739 19.2661 11.2041C19.2999 11.0343 19.3834 10.8783 19.5059 10.7559L21.3653 8.89655L20.2114 7.84109L20.184 7.81484C18.9679 6.59912 17.4204 5.76871 15.735 5.42734C14.0497 5.08597 12.3011 5.24877 10.7077 5.89541C9.11427 6.54206 7.74674 7.64387 6.7759 9.0632C5.80506 10.4825 5.27396 12.1565 5.24894 13.8759C5.22393 15.5953 5.7061 17.284 6.63524 18.731C7.56437 20.178 8.89927 21.3191 10.4732 22.0118C12.0471 22.7045 13.7902 22.9181 15.4848 22.6259C17.1794 22.3338 18.7503 21.5487 20.0014 20.3689C20.0849 20.2899 20.1832 20.2281 20.2906 20.1871C20.398 20.1461 20.5124 20.1266 20.6273 20.1298C20.7422 20.133 20.8554 20.1588 20.9603 20.2057C21.0653 20.2527 21.16 20.3198 21.239 20.4034C21.3179 20.4869 21.3797 20.5851 21.4207 20.6925C21.4618 20.7999 21.4812 20.9144 21.478 21.0293C21.4748 21.1442 21.449 21.2574 21.4021 21.3623C21.3552 21.4673 21.288 21.5619 21.2045 21.6409C19.2589 23.4833 16.6794 24.5069 14 24.5H13.8556C12.1359 24.4764 10.4484 24.0308 8.94126 23.2024C7.43415 22.3739 6.1536 21.1879 5.21219 19.7486C4.27077 18.3093 3.6973 16.6608 3.54219 14.948C3.38707 13.2352 3.65506 11.5105 4.32259 9.92551C4.99012 8.34052 6.03676 6.94376 7.37052 5.858C8.70428 4.77224 10.2843 4.03072 11.9718 3.69861C13.6592 3.3665 15.4024 3.45397 17.0482 3.95334C18.6939 4.4527 20.1918 5.34867 21.4101 6.56249L22.6056 7.65624L24.7559 5.50155C24.8785 5.37878 25.0349 5.29524 25.2052 5.26155C25.3754 5.22787 25.5518 5.24557 25.7119 5.3124C25.8721 5.37922 26.0088 5.49216 26.1046 5.63686C26.2004 5.78155 26.251 5.95146 26.25 6.12499Z" fill="#232C36"/>
<path d="M13.9578 18.09C13.4578 18.09 13.0244 17.9933 12.6578 17.8C12.2911 17.6067 12.0044 17.34 11.7978 17C11.5911 16.6533 11.4878 16.2533 11.4878 15.8H12.5178C12.5178 16.08 12.5778 16.3233 12.6978 16.53C12.8178 16.73 12.9844 16.89 13.1978 17.01C13.4178 17.1233 13.6744 17.18 13.9678 17.18C14.4478 17.18 14.8178 17.0367 15.0778 16.75C15.3378 16.4633 15.4678 16.0933 15.4678 15.64C15.4678 15.3067 15.4044 15.0233 15.2778 14.79C15.1578 14.5567 14.9844 14.3767 14.7578 14.25C14.5378 14.1233 14.2778 14.06 13.9778 14.06C13.6378 14.06 13.3478 14.1367 13.1078 14.29C12.8744 14.4433 12.7078 14.64 12.6078 14.88H11.6278L11.7978 10.79H16.1478V11.69H12.7078L12.6078 13.83L12.6678 13.85C12.8144 13.65 13.0244 13.49 13.2978 13.37C13.5711 13.25 13.8678 13.19 14.1878 13.19C14.5478 13.19 14.8711 13.25 15.1578 13.37C15.4444 13.4833 15.6878 13.65 15.8878 13.87C16.0944 14.0833 16.2511 14.3367 16.3578 14.63C16.4711 14.9233 16.5278 15.2467 16.5278 15.6C16.5278 16.1 16.4211 16.5367 16.2078 16.91C16.0011 17.2833 15.7044 17.5733 15.3178 17.78C14.9378 17.9867 14.4844 18.09 13.9578 18.09Z" fill="#232C36"/>
</svg>
