<svg width="32" height="33" viewBox="0 0 32 33" fill="none" xmlns="http://www.w3.org/2000/svg">
<path d="M10 16.3259V8.32585C10 6.73455 10.6321 5.20843 11.7574 4.08321C12.8826 2.95799 14.4087 2.32585 16 2.32585C17.5913 2.32585 19.1174 2.95799 20.2426 4.08321C21.3679 5.20843 22 6.73455 22 8.32585V16.3259C22 17.9172 21.3679 19.4433 20.2426 20.5685C19.1174 21.6937 17.5913 22.3259 16 22.3259C14.4087 22.3259 12.8826 21.6937 11.7574 20.5685C10.6321 19.4433 10 17.9172 10 16.3259ZM26 16.3259C26 16.0606 25.8946 15.8063 25.7071 15.6187C25.5196 15.4312 25.2652 15.3259 25 15.3259C24.7348 15.3259 24.4804 15.4312 24.2929 15.6187C24.1054 15.8063 24 16.0606 24 16.3259C24 18.4476 23.1571 20.4824 21.6569 21.9827C20.1566 23.483 18.1217 24.3259 16 24.3259C13.8783 24.3259 11.8434 23.483 10.3431 21.9827C8.84285 20.4824 8 18.4476 8 16.3259C8 16.0606 7.89464 15.8063 7.70711 15.6187C7.51957 15.4312 7.26522 15.3259 7 15.3259C6.73478 15.3259 6.48043 15.4312 6.29289 15.6187C6.10536 15.8063 6 16.0606 6 16.3259C6.00305 18.804 6.9249 21.1931 8.5873 23.0309C10.2497 24.8688 12.5346 26.025 15 26.2759V29.3259C15 29.5911 15.1054 29.8454 15.2929 30.033C15.4804 30.2205 15.7348 30.3259 16 30.3259C16.2652 30.3259 16.5196 30.2205 16.7071 30.033C16.8946 29.8454 17 29.5911 17 29.3259V26.2759C19.4654 26.025 21.7503 24.8688 23.4127 23.0309C25.0751 21.1931 25.997 18.804 26 16.3259Z" fill="#171E26"/>
</svg>
