<svg width="28" height="28" viewBox="0 0 28 28" fill="none" xmlns="http://www.w3.org/2000/svg">
<path d="M24.5 14C24.5003 16.7605 23.4134 19.4101 21.4747 21.3752C19.536 23.3403 16.9014 24.4629 14.1411 24.5H14C11.3184 24.5067 8.7372 23.4805 6.7922 21.6344C6.70868 21.5554 6.64153 21.4607 6.5946 21.3558C6.54767 21.2508 6.52186 21.1376 6.51866 21.0227C6.51547 20.9078 6.53493 20.7934 6.57595 20.686C6.61698 20.5786 6.67875 20.4803 6.75775 20.3968C6.83675 20.3133 6.93142 20.2461 7.03637 20.1992C7.14132 20.1523 7.25448 20.1265 7.3694 20.1233C7.48432 20.1201 7.59875 20.1395 7.70614 20.1806C7.81354 20.2216 7.9118 20.2833 7.99533 20.3623C9.24636 21.5422 10.8173 22.3272 12.5119 22.6194C14.2065 22.9116 15.9496 22.698 17.5235 22.0053C19.0974 21.3125 20.4323 20.1714 21.3615 18.7244C22.2906 17.2774 22.7728 15.5888 22.7478 13.8693C22.7227 12.1499 22.1916 10.476 21.2208 9.05665C20.25 7.63731 18.8824 6.5355 17.289 5.88886C15.6956 5.24222 13.947 5.07942 12.2617 5.42079C10.5763 5.76216 9.02885 6.59257 7.81267 7.80828C7.80374 7.81795 7.79424 7.82708 7.78423 7.83563L6.63142 8.8911L8.4908 10.7505C8.615 10.8724 8.70004 11.0285 8.73505 11.1989C8.77007 11.3694 8.75346 11.5464 8.68736 11.7074C8.62126 11.8684 8.50866 12.006 8.36396 12.1026C8.21926 12.1993 8.04903 12.2506 7.87501 12.25H2.62501C2.39295 12.25 2.17039 12.1578 2.0063 11.9937C1.8422 11.8296 1.75001 11.6071 1.75001 11.375V6.125C1.74901 5.95147 1.79962 5.78156 1.89543 5.63687C1.99123 5.49217 2.12789 5.37924 2.28804 5.31241C2.44819 5.24558 2.6246 5.22788 2.79483 5.26157C2.96507 5.29525 3.12144 5.37879 3.24408 5.50157L5.3933 7.65625L6.58986 6.5625C8.05984 5.09823 9.93068 4.1023 11.9662 3.70041C14.0018 3.29853 16.1107 3.50872 18.0269 4.30444C19.9431 5.10017 21.5806 6.44576 22.7326 8.17135C23.8847 9.89694 24.4997 11.9252 24.5 14Z" fill="#232C36"/>
<path d="M13.9578 18.09C13.4578 18.09 13.0244 17.9933 12.6578 17.8C12.2911 17.6067 12.0044 17.34 11.7978 17C11.5911 16.6533 11.4878 16.2533 11.4878 15.8H12.5178C12.5178 16.08 12.5778 16.3233 12.6978 16.53C12.8178 16.73 12.9844 16.89 13.1978 17.01C13.4178 17.1233 13.6744 17.18 13.9678 17.18C14.4478 17.18 14.8178 17.0367 15.0778 16.75C15.3378 16.4633 15.4678 16.0933 15.4678 15.64C15.4678 15.3067 15.4044 15.0233 15.2778 14.79C15.1578 14.5567 14.9844 14.3767 14.7578 14.25C14.5378 14.1233 14.2778 14.06 13.9778 14.06C13.6378 14.06 13.3478 14.1367 13.1078 14.29C12.8744 14.4433 12.7078 14.64 12.6078 14.88H11.6278L11.7978 10.79H16.1478V11.69H12.7078L12.6078 13.83L12.6678 13.85C12.8144 13.65 13.0244 13.49 13.2978 13.37C13.5711 13.25 13.8678 13.19 14.1878 13.19C14.5478 13.19 14.8711 13.25 15.1578 13.37C15.4444 13.4833 15.6878 13.65 15.8878 13.87C16.0944 14.0833 16.2511 14.3367 16.3578 14.63C16.4711 14.9233 16.5278 15.2467 16.5278 15.6C16.5278 16.1 16.4211 16.5367 16.2078 16.91C16.0011 17.2833 15.7044 17.5733 15.3178 17.78C14.9378 17.9867 14.4844 18.09 13.9578 18.09Z" fill="#232C36"/>
</svg>
