<svg width="32" height="33" viewBox="0 0 32 33" fill="none" xmlns="http://www.w3.org/2000/svg">
<path opacity="0.2" d="M25 7.32585V26.3259C25 26.5911 24.8946 26.8454 24.7071 27.033C24.5196 27.2205 24.2652 27.3259 24 27.3259H8C7.73478 27.3259 7.48043 27.2205 7.29289 27.033C7.10536 26.8454 7 26.5911 7 26.3259V7.32585H25Z" fill="#E70E32"/>
<path d="M27 6.32585H22V5.32585C22 4.5302 21.6839 3.76714 21.1213 3.20453C20.5587 2.64192 19.7956 2.32585 19 2.32585H13C12.2044 2.32585 11.4413 2.64192 10.8787 3.20453C10.3161 3.76714 10 4.5302 10 5.32585V6.32585H5C4.73478 6.32585 4.48043 6.43121 4.29289 6.61874C4.10536 6.80628 4 7.06064 4 7.32585C4 7.59107 4.10536 7.84542 4.29289 8.03296C4.48043 8.22049 4.73478 8.32585 5 8.32585H6V26.3259C6 26.8563 6.21071 27.365 6.58579 27.7401C6.96086 28.1151 7.46957 28.3259 8 28.3259H24C24.5304 28.3259 25.0391 28.1151 25.4142 27.7401C25.7893 27.365 26 26.8563 26 26.3259V8.32585H27C27.2652 8.32585 27.5196 8.22049 27.7071 8.03296C27.8946 7.84542 28 7.59107 28 7.32585C28 7.06064 27.8946 6.80628 27.7071 6.61874C27.5196 6.43121 27.2652 6.32585 27 6.32585ZM12 5.32585C12 5.06063 12.1054 4.80628 12.2929 4.61874C12.4804 4.43121 12.7348 4.32585 13 4.32585H19C19.2652 4.32585 19.5196 4.43121 19.7071 4.61874C19.8946 4.80628 20 5.06063 20 5.32585V6.32585H12V5.32585ZM24 26.3259H8V8.32585H24V26.3259ZM14 13.3259V21.3259C14 21.5911 13.8946 21.8454 13.7071 22.033C13.5196 22.2205 13.2652 22.3259 13 22.3259C12.7348 22.3259 12.4804 22.2205 12.2929 22.033C12.1054 21.8454 12 21.5911 12 21.3259V13.3259C12 13.0606 12.1054 12.8063 12.2929 12.6187C12.4804 12.4312 12.7348 12.3259 13 12.3259C13.2652 12.3259 13.5196 12.4312 13.7071 12.6187C13.8946 12.8063 14 13.0606 14 13.3259ZM20 13.3259V21.3259C20 21.5911 19.8946 21.8454 19.7071 22.033C19.5196 22.2205 19.2652 22.3259 19 22.3259C18.7348 22.3259 18.4804 22.2205 18.2929 22.033C18.1054 21.8454 18 21.5911 18 21.3259V13.3259C18 13.0606 18.1054 12.8063 18.2929 12.6187C18.4804 12.4312 18.7348 12.3259 19 12.3259C19.2652 12.3259 19.5196 12.4312 19.7071 12.6187C19.8946 12.8063 20 13.0606 20 13.3259Z" fill="#E70E32"/>
</svg>
