<svg width="146" height="26" viewBox="0 0 146 26" fill="none" xmlns="http://www.w3.org/2000/svg">
<path d="M14.0335 20L12.2181 14.8457H5.12141L3.30598 20H0.0940628L7.00031 1.36328H10.3773L17.2708 20H14.0335ZM11.431 12.2305L9.66633 7.15234C9.59862 6.93229 9.50129 6.62337 9.37434 6.22559C9.24738 5.81934 9.12043 5.40885 8.99348 4.99414C8.86652 4.57096 8.76073 4.21549 8.67609 3.92773C8.59146 4.27474 8.48566 4.66406 8.35871 5.0957C8.24022 5.51888 8.12173 5.91667 8.00324 6.28906C7.89322 6.66146 7.80858 6.94922 7.74934 7.15234L5.97199 12.2305H11.431ZM26.2784 5.67969C26.5154 5.67969 26.7735 5.69238 27.0528 5.71777C27.3321 5.74316 27.5733 5.77702 27.7764 5.81934L27.4971 8.6123C27.3194 8.56152 27.0994 8.52344 26.837 8.49805C26.5831 8.47266 26.3546 8.45996 26.1514 8.45996C25.6182 8.45996 25.1104 8.54883 24.628 8.72656C24.1456 8.89583 23.7182 9.1582 23.3458 9.51367C22.9734 9.86068 22.6814 10.2965 22.4698 10.8213C22.2582 11.346 22.1524 11.9554 22.1524 12.6494V20H19.1563V5.94629H21.4923L21.8985 8.42188H22.0382C22.3175 7.92253 22.6645 7.46549 23.0792 7.05078C23.4939 6.63607 23.9679 6.30599 24.5011 6.06055C25.0427 5.80664 25.6352 5.67969 26.2784 5.67969ZM37.2411 5.67969C37.478 5.67969 37.7362 5.69238 38.0155 5.71777C38.2948 5.74316 38.536 5.77702 38.7391 5.81934L38.4598 8.6123C38.2821 8.56152 38.062 8.52344 37.7996 8.49805C37.5457 8.47266 37.3172 8.45996 37.1141 8.45996C36.5809 8.45996 36.0731 8.54883 35.5907 8.72656C35.1082 8.89583 34.6808 9.1582 34.3084 9.51367C33.936 9.86068 33.644 10.2965 33.4325 10.8213C33.2209 11.346 33.1151 11.9554 33.1151 12.6494V20H30.119V5.94629H32.4549L32.8612 8.42188H33.0008C33.2801 7.92253 33.6271 7.46549 34.0418 7.05078C34.4565 6.63607 34.9305 6.30599 35.4637 6.06055C36.0054 5.80664 36.5978 5.67969 37.2411 5.67969ZM46.6803 5.67969C47.9329 5.67969 49.0077 5.93783 49.9049 6.4541C50.802 6.97038 51.4918 7.70247 51.9742 8.65039C52.4566 9.59831 52.6979 10.7324 52.6979 12.0527V13.6523H43.316C43.3499 15.015 43.7138 16.0645 44.4078 16.8008C45.1103 17.5371 46.0921 17.9053 47.3531 17.9053C48.2503 17.9053 49.0543 17.8206 49.7652 17.6514C50.4846 17.4736 51.2252 17.2155 51.9869 16.877V19.3018C51.2844 19.6318 50.5693 19.873 49.8414 20.0254C49.1135 20.1777 48.2418 20.2539 47.2262 20.2539C45.8466 20.2539 44.6321 19.9873 43.5826 19.4541C42.5416 18.9124 41.7249 18.1084 41.1324 17.042C40.5484 15.9756 40.2564 14.651 40.2564 13.0684C40.2564 11.4941 40.523 10.1569 41.0563 9.05664C41.5895 7.95638 42.3385 7.11849 43.3033 6.54297C44.2682 5.96745 45.3938 5.67969 46.6803 5.67969ZM46.6803 7.92676C45.7408 7.92676 44.9791 8.23145 44.3951 8.84082C43.8196 9.4502 43.4811 10.3431 43.3795 11.5195H49.7779C49.7695 10.8171 49.651 10.195 49.4225 9.65332C49.2024 9.11165 48.8639 8.68848 48.4068 8.38379C47.9583 8.0791 47.3827 7.92676 46.6803 7.92676ZM50.8316 0.0810547V0.334961C50.6285 0.580404 50.3535 0.876628 50.0064 1.22363C49.6594 1.56217 49.2828 1.92188 48.8766 2.30273C48.4703 2.67513 48.0683 3.03483 47.6705 3.38184C47.2727 3.72038 46.913 4.00814 46.5914 4.24512H44.5982V3.91504C44.8775 3.59342 45.1865 3.20833 45.525 2.75977C45.872 2.3112 46.2105 1.84993 46.5406 1.37598C46.8792 0.902018 47.1627 0.470378 47.3912 0.0810547H50.8316ZM58.2589 25.167C57.7849 25.167 57.3702 25.1331 57.0148 25.0654C56.6508 25.0062 56.3377 24.9342 56.0753 24.8496L56.1134 22.3105C56.3927 22.3783 56.6974 22.4375 57.0275 22.4883C57.3575 22.5391 57.713 22.5645 58.0939 22.5645C58.644 22.5645 59.1307 22.4502 59.5538 22.2217C59.977 22.0016 60.3367 21.6589 60.6329 21.1934C60.9376 20.7279 61.1661 20.127 61.3185 19.3906L65.1398 1.43945H68.1486L64.2511 19.7842C63.9718 21.0622 63.5655 22.0947 63.0323 22.8818C62.5076 23.6774 61.8474 24.2572 61.0519 24.6211C60.2563 24.985 59.3253 25.167 58.2589 25.167ZM74.1981 20.2285C73.1317 20.2285 72.2007 20.0085 71.4052 19.5684C70.6096 19.1283 69.9917 18.5062 69.5516 17.7021C69.12 16.8896 68.9042 15.929 68.9042 14.8203C68.9042 13.8809 69.0015 12.9668 69.1962 12.0781C69.3993 11.1895 69.6955 10.36 70.0848 9.58984C70.4742 8.81966 70.9608 8.14681 71.5448 7.57129C72.1288 6.9873 72.8059 6.53451 73.5761 6.21289C74.3462 5.88281 75.2095 5.71777 76.1659 5.71777C77.2577 5.71777 78.1972 5.93783 78.9843 6.37793C79.7714 6.81803 80.3765 7.44857 80.7997 8.26953C81.2229 9.09049 81.4345 10.0723 81.4345 11.2148C81.4345 12.1289 81.3371 13.0218 81.1425 13.8936C80.9563 14.7653 80.6727 15.5863 80.2919 16.3564C79.911 17.1182 79.4286 17.791 78.8446 18.375C78.2691 18.9505 77.592 19.4033 76.8134 19.7334C76.0432 20.0635 75.1714 20.2285 74.1981 20.2285ZM74.4139 17.791C74.8879 17.791 75.328 17.6852 75.7343 17.4736C76.149 17.2536 76.5214 16.9447 76.8514 16.5469C77.1815 16.1406 77.4608 15.6624 77.6893 15.1123C77.9263 14.5537 78.1083 13.9359 78.2352 13.2588C78.3622 12.5817 78.4257 11.8581 78.4257 11.0879C78.4257 10.5716 78.3495 10.0934 78.1972 9.65332C78.0448 9.20475 77.7909 8.84505 77.4354 8.57422C77.0884 8.29492 76.6229 8.15527 76.0389 8.15527C75.5142 8.15527 75.0318 8.28223 74.5917 8.53613C74.16 8.78158 73.775 9.12435 73.4364 9.56445C73.1063 10.0046 72.827 10.5124 72.5985 11.0879C72.37 11.6549 72.1965 12.2643 72.078 12.916C71.9595 13.5592 71.9003 14.2109 71.9003 14.8711C71.9003 15.8105 72.1119 16.5342 72.535 17.042C72.9667 17.5413 73.593 17.791 74.4139 17.791ZM87.3317 20.2539C86.5784 20.2539 85.9352 20.1058 85.402 19.8096C84.8773 19.5133 84.4752 19.0859 84.1959 18.5273C83.9251 17.9603 83.7897 17.2832 83.7897 16.4961C83.7897 16.1491 83.8151 15.7682 83.8659 15.3535C83.9251 14.9303 83.997 14.4945 84.0817 14.0459L85.8082 5.94629H88.7789L86.9635 14.4775C86.9043 14.8076 86.8535 15.1081 86.8112 15.3789C86.7773 15.6413 86.7604 15.8825 86.7604 16.1025C86.7604 16.6696 86.8916 17.1012 87.1539 17.3975C87.4248 17.6852 87.8437 17.8291 88.4108 17.8291C89.0202 17.8291 89.6126 17.6006 90.1881 17.1436C90.7721 16.6781 91.3011 16.0052 91.775 15.125C92.249 14.2448 92.6172 13.1826 92.8795 11.9385L94.1491 5.94629H97.0944L94.1237 20H91.7877L92.0924 17.334H91.9655C91.6269 17.8333 91.2334 18.3073 90.7848 18.7559C90.3362 19.196 89.8284 19.5557 89.2614 19.835C88.6943 20.1143 88.0511 20.2539 87.3317 20.2539ZM98.0785 20L101.062 5.94629H103.385L103.08 8.59961H103.22C103.584 8.05794 103.978 7.56706 104.401 7.12695C104.832 6.68685 105.311 6.33561 105.835 6.07324C106.36 5.81087 106.944 5.67969 107.587 5.67969C107.816 5.67969 108.053 5.69661 108.298 5.73047C108.552 5.75586 108.772 5.79395 108.958 5.84473L108.311 8.6377C108.125 8.58691 107.922 8.5446 107.702 8.51074C107.482 8.47689 107.249 8.45996 107.003 8.45996C106.445 8.45996 105.92 8.59115 105.429 8.85352C104.938 9.11589 104.494 9.47982 104.096 9.94531C103.698 10.4108 103.356 10.9567 103.068 11.583C102.78 12.2008 102.556 12.8737 102.395 13.6016L101.049 20H98.0785ZM108.381 20L111.377 5.9082H113.777L113.472 8.56152H113.548C113.887 8.06217 114.28 7.59245 114.729 7.15234C115.177 6.70378 115.685 6.33984 116.252 6.06055C116.828 5.78125 117.471 5.6416 118.182 5.6416C118.96 5.6416 119.621 5.79395 120.162 6.09863C120.704 6.40332 121.114 6.83919 121.394 7.40625C121.673 7.97331 121.813 8.65039 121.813 9.4375C121.813 9.78451 121.783 10.1569 121.724 10.5547C121.673 10.944 121.605 11.3249 121.521 11.6973L119.756 20H116.722L118.525 11.4561C118.601 11.126 118.656 10.8298 118.69 10.5674C118.732 10.305 118.753 10.0596 118.753 9.83105C118.753 9.27246 118.613 8.85352 118.334 8.57422C118.063 8.29492 117.657 8.15527 117.115 8.15527C116.523 8.15527 115.939 8.38379 115.363 8.84082C114.788 9.29785 114.267 9.96224 113.802 10.834C113.336 11.7057 112.968 12.7594 112.697 13.9951L111.428 20H108.381ZM128.015 20.2539C127.295 20.2539 126.639 20.0804 126.047 19.7334C125.463 19.3779 124.997 18.8363 124.65 18.1084C124.303 17.3721 124.13 16.4368 124.13 15.3027C124.13 14.321 124.231 13.3646 124.434 12.4336C124.646 11.5026 124.942 10.6309 125.323 9.81836C125.712 9.00586 126.182 8.29069 126.732 7.67285C127.282 7.04655 127.905 6.5599 128.599 6.21289C129.293 5.85742 130.042 5.67969 130.846 5.67969C131.455 5.67969 131.988 5.78548 132.445 5.99707C132.902 6.2002 133.287 6.47526 133.601 6.82227C133.914 7.16927 134.168 7.55436 134.362 7.97754H134.476L135.238 5.94629H137.523L134.54 20H132.268L132.547 17.7275H132.445C132.081 18.193 131.675 18.6162 131.226 18.9971C130.786 19.3779 130.3 19.6826 129.767 19.9111C129.233 20.1396 128.649 20.2539 128.015 20.2539ZM129.106 17.8291C129.699 17.8291 130.266 17.609 130.808 17.1689C131.349 16.7204 131.827 16.1279 132.242 15.3916C132.665 14.6553 132.978 13.847 133.182 12.9668C133.283 12.5436 133.351 12.1416 133.385 11.7607C133.427 11.3799 133.448 10.999 133.448 10.6182C133.448 9.88184 133.254 9.28092 132.864 8.81543C132.475 8.34993 131.942 8.11719 131.265 8.11719C130.799 8.11719 130.355 8.24837 129.932 8.51074C129.517 8.77311 129.14 9.13704 128.802 9.60254C128.463 10.0596 128.167 10.5885 127.913 11.1895C127.668 11.7904 127.477 12.4378 127.342 13.1318C127.215 13.8174 127.151 14.5156 127.151 15.2266C127.151 16.0814 127.321 16.7288 127.659 17.1689C128.006 17.609 128.489 17.8291 129.106 17.8291ZM138.342 20L142.545 0.246094H145.503L141.313 20H138.342Z" fill="white"/>
</svg>
