<svg width="200" height="70" viewBox="0 0 200 70" fill="none" xmlns="http://www.w3.org/2000/svg">
<g clip-path="url(#clip0_4_1583)">
<path d="M35.1944 28.8893L40.4156 44.0658H29.8244L35.1944 28.8893ZM23.9076 5.28717L0 69.9858H20.8562L24.1023 60.6098H46.0977L49.3352 69.9858H70.6465L46.7589 5.28717H23.9076Z" fill="white"/>
<path d="M174.141 0L167.612 17.6777H180.253L198.198 0H174.141Z" fill="#EC1C24"/>
<path d="M200.011 44.3612C200.011 30.0307 191.089 20.1105 175.471 20.1105C160.924 20.1105 150.204 30.0166 150.204 45.0859C150.204 59.9437 160.142 69.9852 175.757 69.9852C188.902 69.9852 197.936 63.3303 199.868 51.4813H180.881C180.06 53.9064 178.099 54.8651 175.749 54.8651C172.219 54.8651 170.293 52.9166 169.543 48.8786H200.011V44.3612ZM169.972 40.185C170.831 37.1339 172.549 35.2333 175.428 35.2333C178.208 35.2333 180.025 37.4892 180.455 40.185H169.972Z" fill="white"/>
<path d="M148.135 40.8884C145.782 39.8366 143.75 39.4136 140.756 39.4136C136.155 39.4136 133.482 41.2071 132.841 43.6434V69.9865H112.517V22.1392H132.841V26.0363C135.417 23.0867 138.938 21.0846 143.964 21.0846C145.891 21.0846 147.399 21.5076 148.135 21.9306V40.8884Z" fill="white"/>
<path d="M108.634 40.8884C106.281 39.8366 104.246 39.4136 101.251 39.4136C96.6515 39.4136 93.9779 41.2071 93.3367 43.6434V69.9865H73.0129V22.1392H93.3367V26.0363C95.9129 23.0867 99.4338 21.0846 104.46 21.0846C106.387 21.0846 107.895 21.5076 108.634 21.9306V40.8884Z" fill="white"/>
</g>
<defs>
<clipPath id="clip0_4_1583">
<rect width="200" height="70" fill="white"/>
</clipPath>
</defs>
</svg>
